<svg xmlns="http://www.w3.org/2000/svg" viewBox="0 0 1200 630" width="1200" height="630" role="img" aria-label="@f0rbit/forge — TypeScript game engine on PIXI">
	<defs>
		<linearGradient id="bg" x1="0" y1="0" x2="0" y2="1">
			<stop offset="0%" stop-color="#1a1d24"/>
			<stop offset="100%" stop-color="#0f1115"/>
		</linearGradient>
		<pattern id="dots" x="0" y="0" width="32" height="32" patternUnits="userSpaceOnUse">
			<circle cx="16" cy="16" r="1.2" fill="#2a2f38"/>
		</pattern>
		<radialGradient id="dot-mask" cx="50%" cy="50%" r="60%">
			<stop offset="0%" stop-color="#000" stop-opacity="1"/>
			<stop offset="100%" stop-color="#000" stop-opacity="0"/>
		</radialGradient>
		<mask id="m">
			<rect width="1200" height="630" fill="url(#dot-mask)"/>
		</mask>
	</defs>

	<rect width="1200" height="630" fill="url(#bg)"/>
	<rect width="1200" height="630" fill="url(#dots)" mask="url(#m)" opacity="0.55"/>

	<g transform="translate(112 188)">
		<rect x="0" y="0" width="120" height="120" rx="18" fill="#1f232c" stroke="#2e333d" stroke-width="1.5"/>
		<g transform="translate(28 28)" stroke="#f4f4f5" stroke-width="3.5" stroke-linecap="round" stroke-linejoin="round" fill="none">
			<path d="M7 10h38a2 2 0 0 1 2 2v6a8 8 0 0 1-8 8H29l-6 12H13l6-12H8a2 2 0 0 1-2-2v-12a2 2 0 0 1 1-2z"/>
			<path d="M44 6h12"/>
			<path d="M50 6v6"/>
		</g>
	</g>

	<g transform="translate(280 230)">
		<text x="0" y="0" fill="#f4f4f5" font-family="ui-sans-serif, -apple-system, system-ui, 'Segoe UI', Roboto, sans-serif" font-size="84" font-weight="600" letter-spacing="-2">@f0rbit/forge</text>
		<text x="0" y="64" fill="#9aa0aa" font-family="ui-sans-serif, -apple-system, system-ui, 'Segoe UI', Roboto, sans-serif" font-size="32" font-weight="400">TypeScript game engine on PIXI</text>
	</g>

	<g transform="translate(112 470)">
		<g font-family="ui-sans-serif, -apple-system, system-ui, sans-serif" font-size="22" font-weight="500">
			<g transform="translate(0 0)">
				<rect x="0" y="-26" width="160" height="40" rx="20" fill="#1f232c" stroke="#2e333d"/>
				<text x="80" y="2" fill="#cfd3da" text-anchor="middle">Deterministic</text>
			</g>
			<g transform="translate(180 0)">
				<rect x="0" y="-26" width="140" height="40" rx="20" fill="#1f232c" stroke="#2e333d"/>
				<text x="70" y="2" fill="#cfd3da" text-anchor="middle">PIXI v8</text>
			</g>
			<g transform="translate(340 0)">
				<rect x="0" y="-26" width="180" height="40" rx="20" fill="#1f232c" stroke="#2e333d"/>
				<text x="90" y="2" fill="#cfd3da" text-anchor="middle">Replay-as-fixture</text>
			</g>
			<g transform="translate(540 0)">
				<rect x="0" y="-26" width="200" height="40" rx="20" fill="#1f232c" stroke="#2e333d"/>
				<text x="100" y="2" fill="#cfd3da" text-anchor="middle">@f0rbit/corpus Result</text>
			</g>
		</g>
	</g>

	<text x="1088" y="595" fill="#5a5f69" font-family="ui-monospace, 'SF Mono', Menlo, monospace" font-size="18" text-anchor="end">f0rbit.github.io/forge</text>
</svg>
